<svg width="28" height="15" viewBox="0 0 28 15" fill="none" xmlns="http://www.w3.org/2000/svg">
<path d="M8.2 1.4C5.4 1.4 3.3 3.5 3.3 6.2c0 3.2 1.9 7.4 3.9 7.4 1.2 0 1.2-3.8 2.8-3.8s1.6 3.8 2.8 3.8c2 0 3.9-4.2 3.9-7.4 0-2.7-2.1-4.8-4.9-4.8-1 0-1.7.4-1.8.4s-.8-.4-1.8-.4Z" fill="#EAF6FF" stroke="#0F5BAA" stroke-width="1.4" stroke-linejoin="round"/>
<path d="M16.8 4.2c.7-.6 1.5-.9 2.5-.9 2.5 0 4.4 1.9 4.4 4.3 0 2.8-1.7 6-3.4 6-1 0-1.1-3.3-2.5-3.3-.7 0-1 .8-1.3 1.7" stroke="#2EC5FF" stroke-width="1.4" stroke-linecap="round" stroke-linejoin="round"/>
</svg>
