<svg width="60" height="60" viewBox="0 0 60 60" fill="none" xmlns="http://www.w3.org/2000/svg">
<circle cx="30" cy="30" r="29" fill="#EAF6FF"/>
<path d="M22 9.5c-6.9 0-12 5.2-12 12.1 0 8.2 4.6 20.5 9.4 20.5 3 0 3.1-10.8 8.8-10.8s5.8 10.8 8.8 10.8c4.8 0 9.4-12.3 9.4-20.5 0-6.9-5.1-12.1-12-12.1-3.5 0-5.5 1.6-6.2 1.6s-2.7-1.6-6.2-1.6Z" fill="white" stroke="#0F5BAA" stroke-width="2.4" stroke-linejoin="round"/>
<path d="M28.2 17v17.5" stroke="#2EC5FF" stroke-width="2.4" stroke-linecap="round"/>
<path d="M20 21h16.2" stroke="#2EC5FF" stroke-width="2.4" stroke-linecap="round"/>
<path d="M43 36.5l7 7m0-7l-7 7" stroke="#0F5BAA" stroke-width="2.2" stroke-linecap="round"/>
</svg>
