<svg width="60" height="60" viewBox="0 0 60 60" fill="none" xmlns="http://www.w3.org/2000/svg">
<circle cx="30" cy="30" r="29" fill="#EAF6FF"/>
<path d="M22.5 12c-6 0-10.4 4.5-10.4 10.5 0 7.1 4 18 8.2 18 2.6 0 2.6-9.1 7.6-9.1s5 9.1 7.6 9.1c4.2 0 8.2-10.9 8.2-18 0-6-4.4-10.5-10.4-10.5-3 0-4.7 1.4-5.4 1.4s-2.4-1.4-5.4-1.4Z" fill="white" stroke="#0F5BAA" stroke-width="2.4" stroke-linejoin="round"/>
<path d="M41.8 33l1.8 4.4 4.4 1.8-4.4 1.8-1.8 4.4-1.8-4.4-4.4-1.8 4.4-1.8 1.8-4.4Z" fill="#2EC5FF"/>
<path d="M20 23.5c4.6 2.5 11.4 2.5 16 0" stroke="#2EC5FF" stroke-width="2.2" stroke-linecap="round"/>
<path d="M18 29.5c5.4 4.4 14.6 4.4 20 0" stroke="#0F5BAA" stroke-width="2" stroke-linecap="round"/>
</svg>
