<svg width="60" height="60" viewBox="0 0 60 60" fill="none" xmlns="http://www.w3.org/2000/svg">
<circle cx="30" cy="30" r="29" fill="#EAF6FF"/>
<path d="M18 14c-6.2 0-10.8 4.7-10.8 10.9 0 7.4 4.2 19 8.5 19 2.7 0 2.7-9.8 7.9-9.8s5.2 9.8 7.9 9.8c4.3 0 8.5-11.6 8.5-19C40 18.7 35.4 14 29.2 14c-3.2 0-4.9 1.5-5.6 1.5S21.2 14 18 14Z" fill="white" stroke="#0F5BAA" stroke-width="2.4" stroke-linejoin="round"/>
<path d="M41.5 12l2.6 6.4 6.4 2.6-6.4 2.6-2.6 6.4-2.6-6.4-6.4-2.6 6.4-2.6 2.6-6.4Z" fill="#2EC5FF"/>
<path d="M16 28c3.4 3.2 8.6 4.9 14.4 4.2" stroke="#2EC5FF" stroke-width="2.2" stroke-linecap="round"/>
</svg>
