<svg width="348" height="102" viewBox="0 0 348 102" fill="none" xmlns="http://www.w3.org/2000/svg">
<defs>
  <linearGradient id="footerDentalGradient" x1="0" y1="0" x2="348" y2="102" gradientUnits="userSpaceOnUse">
    <stop stop-color="#FFFFFF"/>
    <stop offset="1" stop-color="#BEEBFF"/>
  </linearGradient>
</defs>
<path d="M1 58H60c4 0 7-2 9-5l13-19 15 43 13-27c2-4 8-4 10 0l9 18 16-39 13 29h44" stroke="url(#footerDentalGradient)" stroke-width="2.5" stroke-linecap="round" stroke-linejoin="round"/>
<path d="M227 33c-14 0-24 10-24 24 0 17 9 39 19 39 6 0 7-20 16-20s10 20 16 20c10 0 19-22 19-39 0-14-10-24-24-24-6 0-10 3-11 3s-5-3-11-3Z" fill="#FFFFFF" fill-opacity=".12" stroke="url(#footerDentalGradient)" stroke-width="3" stroke-linejoin="round"/>
<path d="M271 58h76" stroke="url(#footerDentalGradient)" stroke-width="2.5" stroke-linecap="round"/>
<path d="M296 25l4 10 10 4-10 4-4 10-4-10-10-4 10-4 4-10Z" fill="#BEEBFF" fill-opacity=".65"/>
</svg>
